<svg width="36" height="36" viewBox="0 0 36 36" fill="none" xmlns="http://www.w3.org/2000/svg">
<path d="M31.3875 19.7445C31.6361 17.8403 31.4756 15.905 30.9165 14.0678C30.3574 12.2306 29.4128 10.5338 28.1456 9.09088C26.8784 7.64793 25.3179 6.49201 23.5683 5.70032C21.8188 4.90864 19.9204 4.49942 18 4.5C14.4196 4.5 10.9858 5.92232 8.45406 8.45406C5.92232 10.9858 4.5 14.4196 4.5 18C4.5 21.5804 5.92232 25.0142 8.45406 27.5459C10.9858 30.0777 14.4196 31.5 18 31.5" stroke="#FF6B00" stroke-width="2" stroke-linecap="round" stroke-linejoin="round"/>
<path d="M13.5 15H13.515" stroke="#FF6B00" stroke-width="2" stroke-linecap="round" stroke-linejoin="round"/>
<path d="M22.5 15H22.515" stroke="#FF6B00" stroke-width="2" stroke-linecap="round" stroke-linejoin="round"/>
<path d="M14.25 22.5C15.237 23.46 16.59 24 18 24C19.41 24 20.763 23.46 21.75 22.5" stroke="#FF6B00" stroke-width="2" stroke-linecap="round" stroke-linejoin="round"/>
<path d="M22.5 28.5L25.5 31.5L31.5 25.5" stroke="#FF6B00" stroke-width="2" stroke-linecap="round" stroke-linejoin="round"/>
</svg>
