<svg width="253" height="52" viewBox="0 0 253 52" fill="none" xmlns="http://www.w3.org/2000/svg">
<mask id="path-1-outside-1_1226_492" maskUnits="userSpaceOnUse" x="0" y="0" width="253" height="52" fill="black">
<rect fill="white" width="253" height="52"/>
<path d="M23.032 9.44L28.168 26L39.208 9.44H48.28L42.184 44H33.496L36.952 24.512L29.56 36.128H23.272L20.008 24.512L16.552 44H7.912L14.008 9.44H23.032ZM63.5174 20.24C66.9734 20.24 69.5814 20.992 71.3414 22.496C72.7174 23.68 73.4054 25.328 73.4054 27.44C73.4054 28.144 73.3254 28.912 73.1654 29.744L72.1574 35.36C71.5494 38.752 70.1254 41.152 67.8854 42.56C65.6774 43.968 62.7174 44.672 59.0054 44.672C55.2934 44.672 52.5734 43.968 50.8454 42.56C49.5654 41.504 48.9254 39.92 48.9254 37.808C48.9254 37.072 49.0054 36.256 49.1654 35.36L50.1734 29.744C51.2934 23.408 55.7414 20.24 63.5174 20.24ZM64.8134 30.704C64.8774 30.384 64.9094 29.984 64.9094 29.504C64.9094 28.992 64.7014 28.432 64.2854 27.824C63.8694 27.216 63.1334 26.912 62.0774 26.912C61.0534 26.912 60.1894 27.264 59.4854 27.968C58.7814 28.64 58.3334 29.552 58.1414 30.704L57.5174 34.304C57.4534 34.624 57.4214 35.04 57.4214 35.552C57.4214 36.032 57.6294 36.56 58.0454 37.136C58.4614 37.712 59.1814 38 60.2054 38C61.2614 38 62.1414 37.648 62.8454 36.944C63.5494 36.208 63.9974 35.328 64.1894 34.304L64.8134 30.704ZM90.6111 20.24C94.0671 20.24 96.6751 20.992 98.4351 22.496C99.8111 23.68 100.499 25.328 100.499 27.44C100.499 28.144 100.419 28.912 100.259 29.744L99.2511 35.36C98.6431 38.752 97.2191 41.152 94.9791 42.56C92.7711 43.968 89.8111 44.672 86.0991 44.672C82.3871 44.672 79.6671 43.968 77.9391 42.56C76.6591 41.504 76.0191 39.92 76.0191 37.808C76.0191 37.072 76.0991 36.256 76.2591 35.36L77.2671 29.744C78.3871 23.408 82.8351 20.24 90.6111 20.24ZM91.9071 30.704C91.9711 30.384 92.0031 29.984 92.0031 29.504C92.0031 28.992 91.7951 28.432 91.3791 27.824C90.9631 27.216 90.2271 26.912 89.1711 26.912C88.1471 26.912 87.2831 27.264 86.5791 27.968C85.8751 28.64 85.4271 29.552 85.2351 30.704L84.6111 34.304C84.5471 34.624 84.5151 35.04 84.5151 35.552C84.5151 36.032 84.7231 36.56 85.1391 37.136C85.5551 37.712 86.2751 38 87.2991 38C88.3551 38 89.2351 37.648 89.9391 36.944C90.6431 36.208 91.0911 35.328 91.2831 34.304L91.9071 30.704ZM125.865 36.608C125.865 37.44 126.281 37.856 127.113 37.856C127.977 37.856 128.697 37.696 129.273 37.376L129.033 42.8C127.497 44.048 125.769 44.672 123.849 44.672C120.329 44.672 118.377 43.392 117.993 40.832C116.393 43.392 114.041 44.672 110.937 44.672C105.689 44.672 103.065 42.416 103.065 37.904C103.065 37.136 103.145 36.288 103.305 35.36L104.313 29.744C104.825 26.864 105.993 24.576 107.817 22.88C109.673 21.152 112.233 20.288 115.497 20.288C117.513 20.288 119.113 20.72 120.297 21.584L122.745 7.568H130.953L125.913 36.032C125.881 36.224 125.865 36.416 125.865 36.608ZM111.657 34.304C111.593 34.592 111.561 34.992 111.561 35.504C111.561 36.016 111.801 36.528 112.281 37.04C112.761 37.52 113.561 37.76 114.681 37.76C115.833 37.76 116.825 37.312 117.657 36.416L119.097 28.352C118.745 27.552 117.913 27.152 116.601 27.152C114.137 27.152 112.697 28.336 112.281 30.704L111.657 34.304ZM163.475 9.44L162.659 35.6H163.763L172.115 9.44H181.523L169.667 44H155.267L156.563 21.872L150.131 44H135.731L136.067 9.44H145.475L144.611 35.6H145.715L154.115 9.44H163.475ZM190.403 37.856C191.139 37.856 191.795 37.696 192.371 37.376L192.131 42.8C190.627 44.048 188.915 44.672 186.995 44.672C184.083 44.672 182.195 44 181.331 42.656C180.755 41.76 180.467 40.816 180.467 39.824C180.467 38.8 180.531 37.904 180.659 37.136L183.539 20.912H191.699L189.011 36.032C188.979 36.224 188.963 36.4 188.963 36.56C188.963 37.424 189.443 37.856 190.403 37.856ZM184.499 13.088C184.499 11.04 184.947 9.552 185.843 8.624C186.771 7.664 188.195 7.184 190.115 7.184C192.803 7.184 194.147 8.368 194.147 10.736C194.147 12.752 193.683 14.224 192.755 15.152C191.859 16.08 190.435 16.544 188.483 16.544C185.827 16.544 184.499 15.392 184.499 13.088ZM219.322 25.904C219.322 26.96 219.002 27.936 218.362 28.832H210.49C210.746 28.64 210.874 28.32 210.874 27.872C210.874 27.424 210.618 27.072 210.106 26.816C209.594 26.528 208.938 26.384 208.138 26.384C205.738 26.384 204.538 27.12 204.538 28.592C204.538 29.168 204.986 29.584 205.882 29.84C206.778 30.096 207.866 30.304 209.146 30.464C210.426 30.624 211.706 30.864 212.986 31.184C214.266 31.472 215.354 32.064 216.25 32.96C217.146 33.856 217.594 35.056 217.594 36.56C217.594 39.216 216.522 41.232 214.378 42.608C212.266 43.984 209.178 44.672 205.114 44.672C201.05 44.672 198.202 44.016 196.57 42.704C195.29 41.68 194.65 40.272 194.65 38.48C194.65 37.968 194.698 37.44 194.794 36.896L202.81 36.8C202.746 37.248 203.002 37.648 203.578 38C204.186 38.32 205.066 38.48 206.218 38.48C207.37 38.48 208.202 38.368 208.714 38.144C209.226 37.888 209.482 37.424 209.482 36.752C209.482 36.304 209.034 36 208.138 35.84C207.242 35.648 206.138 35.488 204.826 35.36C203.546 35.232 202.25 35.024 200.938 34.736C199.658 34.448 198.57 33.84 197.674 32.912C196.778 31.984 196.33 30.768 196.33 29.264C196.33 26.352 197.45 24.112 199.69 22.544C201.962 20.976 205.226 20.192 209.482 20.192C216.042 20.192 219.322 22.096 219.322 25.904ZM231.361 44.672C224.705 44.672 221.377 42.368 221.377 37.76C221.377 37.12 221.441 36.432 221.569 35.696L222.577 29.744C223.121 26.672 224.529 24.32 226.801 22.688C229.105 21.024 232.145 20.192 235.921 20.192C242.353 20.192 245.569 22.624 245.569 27.488C245.569 28.192 245.505 28.96 245.377 29.792L244.801 33.2H230.161L229.969 34.304C229.905 34.688 229.873 35.04 229.873 35.36C229.873 37.12 230.913 38 232.993 38C233.761 38 234.417 37.76 234.961 37.28C235.505 36.8 235.825 36.24 235.921 35.6L243.889 35.696C242.833 41.68 238.657 44.672 231.361 44.672ZM237.121 30.272C237.249 29.728 237.313 29.232 237.313 28.784C237.313 28.304 237.105 27.824 236.689 27.344C236.273 26.864 235.601 26.624 234.673 26.624C233.777 26.624 232.945 26.928 232.177 27.536C231.441 28.144 230.929 29.056 230.641 30.272H237.121Z"/>
</mask>
<path d="M23.032 9.44L28.168 26L39.208 9.44H48.28L42.184 44H33.496L36.952 24.512L29.56 36.128H23.272L20.008 24.512L16.552 44H7.912L14.008 9.44H23.032ZM63.5174 20.24C66.9734 20.24 69.5814 20.992 71.3414 22.496C72.7174 23.68 73.4054 25.328 73.4054 27.44C73.4054 28.144 73.3254 28.912 73.1654 29.744L72.1574 35.36C71.5494 38.752 70.1254 41.152 67.8854 42.56C65.6774 43.968 62.7174 44.672 59.0054 44.672C55.2934 44.672 52.5734 43.968 50.8454 42.56C49.5654 41.504 48.9254 39.92 48.9254 37.808C48.9254 37.072 49.0054 36.256 49.1654 35.36L50.1734 29.744C51.2934 23.408 55.7414 20.24 63.5174 20.24ZM64.8134 30.704C64.8774 30.384 64.9094 29.984 64.9094 29.504C64.9094 28.992 64.7014 28.432 64.2854 27.824C63.8694 27.216 63.1334 26.912 62.0774 26.912C61.0534 26.912 60.1894 27.264 59.4854 27.968C58.7814 28.64 58.3334 29.552 58.1414 30.704L57.5174 34.304C57.4534 34.624 57.4214 35.04 57.4214 35.552C57.4214 36.032 57.6294 36.56 58.0454 37.136C58.4614 37.712 59.1814 38 60.2054 38C61.2614 38 62.1414 37.648 62.8454 36.944C63.5494 36.208 63.9974 35.328 64.1894 34.304L64.8134 30.704ZM90.6111 20.24C94.0671 20.24 96.6751 20.992 98.4351 22.496C99.8111 23.68 100.499 25.328 100.499 27.44C100.499 28.144 100.419 28.912 100.259 29.744L99.2511 35.36C98.6431 38.752 97.2191 41.152 94.9791 42.56C92.7711 43.968 89.8111 44.672 86.0991 44.672C82.3871 44.672 79.6671 43.968 77.9391 42.56C76.6591 41.504 76.0191 39.92 76.0191 37.808C76.0191 37.072 76.0991 36.256 76.2591 35.36L77.2671 29.744C78.3871 23.408 82.8351 20.24 90.6111 20.24ZM91.9071 30.704C91.9711 30.384 92.0031 29.984 92.0031 29.504C92.0031 28.992 91.7951 28.432 91.3791 27.824C90.9631 27.216 90.2271 26.912 89.1711 26.912C88.1471 26.912 87.2831 27.264 86.5791 27.968C85.8751 28.64 85.4271 29.552 85.2351 30.704L84.6111 34.304C84.5471 34.624 84.5151 35.04 84.5151 35.552C84.5151 36.032 84.7231 36.56 85.1391 37.136C85.5551 37.712 86.2751 38 87.2991 38C88.3551 38 89.2351 37.648 89.9391 36.944C90.6431 36.208 91.0911 35.328 91.2831 34.304L91.9071 30.704ZM125.865 36.608C125.865 37.44 126.281 37.856 127.113 37.856C127.977 37.856 128.697 37.696 129.273 37.376L129.033 42.8C127.497 44.048 125.769 44.672 123.849 44.672C120.329 44.672 118.377 43.392 117.993 40.832C116.393 43.392 114.041 44.672 110.937 44.672C105.689 44.672 103.065 42.416 103.065 37.904C103.065 37.136 103.145 36.288 103.305 35.36L104.313 29.744C104.825 26.864 105.993 24.576 107.817 22.88C109.673 21.152 112.233 20.288 115.497 20.288C117.513 20.288 119.113 20.72 120.297 21.584L122.745 7.568H130.953L125.913 36.032C125.881 36.224 125.865 36.416 125.865 36.608ZM111.657 34.304C111.593 34.592 111.561 34.992 111.561 35.504C111.561 36.016 111.801 36.528 112.281 37.04C112.761 37.52 113.561 37.76 114.681 37.76C115.833 37.76 116.825 37.312 117.657 36.416L119.097 28.352C118.745 27.552 117.913 27.152 116.601 27.152C114.137 27.152 112.697 28.336 112.281 30.704L111.657 34.304ZM163.475 9.44L162.659 35.6H163.763L172.115 9.44H181.523L169.667 44H155.267L156.563 21.872L150.131 44H135.731L136.067 9.44H145.475L144.611 35.6H145.715L154.115 9.44H163.475ZM190.403 37.856C191.139 37.856 191.795 37.696 192.371 37.376L192.131 42.8C190.627 44.048 188.915 44.672 186.995 44.672C184.083 44.672 182.195 44 181.331 42.656C180.755 41.76 180.467 40.816 180.467 39.824C180.467 38.8 180.531 37.904 180.659 37.136L183.539 20.912H191.699L189.011 36.032C188.979 36.224 188.963 36.4 188.963 36.56C188.963 37.424 189.443 37.856 190.403 37.856ZM184.499 13.088C184.499 11.04 184.947 9.552 185.843 8.624C186.771 7.664 188.195 7.184 190.115 7.184C192.803 7.184 194.147 8.368 194.147 10.736C194.147 12.752 193.683 14.224 192.755 15.152C191.859 16.08 190.435 16.544 188.483 16.544C185.827 16.544 184.499 15.392 184.499 13.088ZM219.322 25.904C219.322 26.96 219.002 27.936 218.362 28.832H210.49C210.746 28.64 210.874 28.32 210.874 27.872C210.874 27.424 210.618 27.072 210.106 26.816C209.594 26.528 208.938 26.384 208.138 26.384C205.738 26.384 204.538 27.12 204.538 28.592C204.538 29.168 204.986 29.584 205.882 29.84C206.778 30.096 207.866 30.304 209.146 30.464C210.426 30.624 211.706 30.864 212.986 31.184C214.266 31.472 215.354 32.064 216.25 32.96C217.146 33.856 217.594 35.056 217.594 36.56C217.594 39.216 216.522 41.232 214.378 42.608C212.266 43.984 209.178 44.672 205.114 44.672C201.05 44.672 198.202 44.016 196.57 42.704C195.29 41.68 194.65 40.272 194.65 38.48C194.65 37.968 194.698 37.44 194.794 36.896L202.81 36.8C202.746 37.248 203.002 37.648 203.578 38C204.186 38.32 205.066 38.48 206.218 38.48C207.37 38.48 208.202 38.368 208.714 38.144C209.226 37.888 209.482 37.424 209.482 36.752C209.482 36.304 209.034 36 208.138 35.84C207.242 35.648 206.138 35.488 204.826 35.36C203.546 35.232 202.25 35.024 200.938 34.736C199.658 34.448 198.57 33.84 197.674 32.912C196.778 31.984 196.33 30.768 196.33 29.264C196.33 26.352 197.45 24.112 199.69 22.544C201.962 20.976 205.226 20.192 209.482 20.192C216.042 20.192 219.322 22.096 219.322 25.904ZM231.361 44.672C224.705 44.672 221.377 42.368 221.377 37.76C221.377 37.12 221.441 36.432 221.569 35.696L222.577 29.744C223.121 26.672 224.529 24.32 226.801 22.688C229.105 21.024 232.145 20.192 235.921 20.192C242.353 20.192 245.569 22.624 245.569 27.488C245.569 28.192 245.505 28.96 245.377 29.792L244.801 33.2H230.161L229.969 34.304C229.905 34.688 229.873 35.04 229.873 35.36C229.873 37.12 230.913 38 232.993 38C233.761 38 234.417 37.76 234.961 37.28C235.505 36.8 235.825 36.24 235.921 35.6L243.889 35.696C242.833 41.68 238.657 44.672 231.361 44.672ZM237.121 30.272C237.249 29.728 237.313 29.232 237.313 28.784C237.313 28.304 237.105 27.824 236.689 27.344C236.273 26.864 235.601 26.624 234.673 26.624C233.777 26.624 232.945 26.928 232.177 27.536C231.441 28.144 230.929 29.056 230.641 30.272H237.121Z" fill="#FF6B00"/>
<path d="M23.032 9.44L29.7178 7.36642C28.8092 4.43684 26.0992 2.44 23.032 2.44V9.44ZM28.168 26L21.4822 28.0736C22.282 30.6525 24.4937 32.5414 27.166 32.9279C29.8383 33.3144 32.4946 32.1295 33.9924 29.8829L28.168 26ZM39.208 9.44V2.44C36.8675 2.44 34.6819 3.60971 33.3836 5.5571L39.208 9.44ZM48.28 9.44L55.1736 10.6559C55.533 8.61818 54.9725 6.5258 53.6424 4.94065C52.3124 3.35549 50.3492 2.44 48.28 2.44V9.44ZM42.184 44V51C45.5809 51 48.4875 48.5612 49.0776 45.216L42.184 44ZM33.496 44L26.6035 42.7777C26.242 44.8162 26.8015 46.9102 28.1315 48.4969C29.4615 50.0835 31.4256 51 33.496 51V44ZM36.952 24.512L43.8445 25.7343C44.4279 22.4442 42.6046 19.2004 39.4906 17.9886C36.3766 16.7767 32.8403 17.9348 31.0464 20.7539L36.952 24.512ZM29.56 36.128V43.128C31.9533 43.128 34.1807 41.9053 35.4656 39.8861L29.56 36.128ZM23.272 36.128L16.533 38.0216C17.3815 41.0414 20.1353 43.128 23.272 43.128V36.128ZM20.008 24.512L26.747 22.6184C25.8638 19.4751 22.9248 17.3599 19.6637 17.5205C16.4026 17.6811 13.6857 20.0748 13.1155 23.2897L20.008 24.512ZM16.552 44V51C19.9465 51 22.8517 48.5646 23.4445 45.2223L16.552 44ZM7.912 44L1.01842 42.784C0.65898 44.8218 1.21953 46.9142 2.54955 48.4994C3.87958 50.0845 5.84278 51 7.912 51L7.912 44ZM14.008 9.44V2.44C10.6111 2.44 7.70449 4.87879 7.11442 8.22405L14.008 9.44ZM16.3462 11.5136L21.4822 28.0736L34.8538 23.9264L29.7178 7.36642L16.3462 11.5136ZM33.9924 29.8829L45.0324 13.3229L33.3836 5.5571L22.3436 22.1171L33.9924 29.8829ZM39.208 16.44H48.28V2.44H39.208V16.44ZM41.3864 8.22405L35.2904 42.784L49.0776 45.216L55.1736 10.6559L41.3864 8.22405ZM42.184 37H33.496V51H42.184V37ZM40.3885 45.2223L43.8445 25.7343L30.0595 23.2897L26.6035 42.7777L40.3885 45.2223ZM31.0464 20.7539L23.6544 32.3699L35.4656 39.8861L42.8576 28.2701L31.0464 20.7539ZM29.56 29.128H23.272V43.128H29.56V29.128ZM30.011 34.2344L26.747 22.6184L13.269 26.4056L16.533 38.0216L30.011 34.2344ZM13.1155 23.2897L9.65954 42.7777L23.4445 45.2223L26.9005 25.7343L13.1155 23.2897ZM16.552 37H7.912V51H16.552V37ZM14.8056 45.216L20.9016 10.6559L7.11442 8.22405L1.01842 42.784L14.8056 45.216ZM14.008 16.44H23.032V2.44H14.008V16.44ZM71.3414 22.496L75.9071 17.1899C75.901 17.1847 75.895 17.1796 75.8889 17.1744L71.3414 22.496ZM73.1654 29.744L66.2913 28.4221C66.2859 28.4505 66.2806 28.4789 66.2755 28.5074L73.1654 29.744ZM72.1574 35.36L65.2675 34.1234L65.2672 34.125L72.1574 35.36ZM67.8854 42.56L64.1602 36.6335C64.1473 36.6416 64.1345 36.6497 64.1217 36.6579L67.8854 42.56ZM50.8454 42.56L46.3907 47.9596C46.4017 47.9687 46.4126 47.9777 46.4237 47.9866L50.8454 42.56ZM49.1654 35.36L42.2755 34.1234L42.2744 34.1295L49.1654 35.36ZM50.1734 29.744L57.0633 30.9806C57.0644 30.9746 57.0654 30.9685 57.0665 30.9625L50.1734 29.744ZM64.8134 30.704L57.9493 29.3312C57.9375 29.3901 57.9265 29.4492 57.9162 29.5085L64.8134 30.704ZM59.4854 27.968L64.3187 33.0315C64.358 32.994 64.3968 32.9561 64.4351 32.9177L59.4854 27.968ZM58.1414 30.704L65.0385 31.8995C65.0411 31.8846 65.0436 31.8697 65.0461 31.8548L58.1414 30.704ZM57.5174 34.304L64.3814 35.6768C64.3932 35.6179 64.4043 35.5587 64.4145 35.4995L57.5174 34.304ZM58.0454 37.136L63.7201 33.0376L63.7201 33.0376L58.0454 37.136ZM62.8454 36.944L67.7951 41.8937C67.8318 41.8571 67.868 41.82 67.9039 41.7826L62.8454 36.944ZM64.1894 34.304L71.0695 35.594C71.0754 35.5626 71.0811 35.531 71.0865 35.4995L64.1894 34.304ZM63.5174 27.24C64.759 27.24 65.597 27.3774 66.126 27.53C66.6343 27.6765 66.7928 27.8168 66.7938 27.8176L75.8889 17.1744C72.3653 14.1633 67.8453 13.24 63.5174 13.24V27.24ZM66.7757 27.8021C66.7263 27.7596 66.6577 27.6904 66.5874 27.5939C66.5168 27.4971 66.4645 27.4001 66.4297 27.3168C66.3581 27.1453 66.4054 27.1436 66.4054 27.44H80.4054C80.4054 23.6584 79.088 19.927 75.9071 17.1899L66.7757 27.8021ZM66.4054 27.44C66.4054 27.6217 66.3838 27.941 66.2913 28.4221L80.0394 31.0659C80.2669 29.883 80.4054 28.6663 80.4054 27.44H66.4054ZM66.2755 28.5074L65.2675 34.1234L79.0473 36.5966L80.0553 30.9806L66.2755 28.5074ZM65.2672 34.125C64.8956 36.1978 64.264 36.5683 64.1602 36.6335L71.6106 48.4865C75.9867 45.7357 78.2031 41.3062 79.0476 36.595L65.2672 34.125ZM64.1217 36.6579C63.4149 37.1086 61.9152 37.672 59.0054 37.672V51.672C63.5195 51.672 67.9398 50.8274 71.649 48.4621L64.1217 36.6579ZM59.0054 37.672C57.5639 37.672 56.5731 37.5324 55.9353 37.3673C55.3051 37.2042 55.1737 37.0572 55.2671 37.1334L46.4237 47.9866C49.9954 50.897 54.668 51.672 59.0054 51.672V37.672ZM55.3001 37.1604C55.427 37.2651 55.5542 37.3973 55.6665 37.5518C55.7783 37.7055 55.8514 37.8481 55.8956 37.9577C55.9816 38.1704 55.9254 38.1708 55.9254 37.808H41.9254C41.9254 41.3918 43.0763 45.2252 46.3907 47.9596L55.3001 37.1604ZM55.9254 37.808C55.9254 37.5678 55.9526 37.1714 56.0564 36.5905L42.2744 34.1295C42.0581 35.3406 41.9254 36.5762 41.9254 37.808H55.9254ZM56.0553 36.5966L57.0633 30.9806L43.2835 28.5074L42.2755 34.1234L56.0553 36.5966ZM57.0665 30.9625C57.3681 29.2565 57.9455 28.6487 58.4103 28.3177C59.0419 27.8678 60.4902 27.24 63.5174 27.24V13.24C58.7686 13.24 54.1048 14.1962 50.2885 16.9143C46.3053 19.7513 44.0987 23.8955 43.2802 28.5255L57.0665 30.9625ZM71.6774 32.0768C71.8632 31.1478 71.9094 30.2512 71.9094 29.504H57.9094C57.9094 29.5925 57.9063 29.6232 57.9077 29.6058C57.9085 29.5957 57.9109 29.5677 57.9168 29.5239C57.9226 29.4803 57.9325 29.415 57.9493 29.3312L71.6774 32.0768ZM71.9094 29.504C71.9094 27.0871 70.9409 25.155 70.0625 23.8712L58.5082 31.7768C58.4618 31.709 57.9094 30.8969 57.9094 29.504H71.9094ZM70.0625 23.8712C67.8339 20.614 64.3693 19.912 62.0774 19.912V33.912C61.9716 33.912 61.4559 33.9018 60.7491 33.6098C59.9658 33.2863 59.131 32.687 58.5082 31.7768L70.0625 23.8712ZM62.0774 19.912C59.2561 19.912 56.5937 20.9602 54.5356 23.0183L64.4351 32.9177C64.1723 33.1806 63.7914 33.4595 63.3025 33.6586C62.8174 33.8562 62.3822 33.912 62.0774 33.912V19.912ZM54.652 22.9045C52.6467 24.8187 51.6264 27.2145 51.2366 29.5532L65.0461 31.8548C65.0465 31.8526 65.0216 32.0035 64.9043 32.2423C64.7813 32.4926 64.5884 32.774 64.3187 33.0315L54.652 22.9045ZM51.2442 29.5085L50.6202 33.1085L64.4145 35.4995L65.0385 31.8995L51.2442 29.5085ZM50.6533 32.9312C50.463 33.8825 50.4214 34.8074 50.4214 35.552H64.4214C64.4214 35.4964 64.4223 35.4552 64.4232 35.4272C64.4242 35.3991 64.4251 35.3882 64.4248 35.3929C64.4244 35.3972 64.4224 35.423 64.4166 35.4674C64.4109 35.5112 64.4003 35.5826 64.3814 35.6768L50.6533 32.9312ZM50.4214 35.552C50.4214 38.0571 51.4867 40.0105 52.3706 41.2344L63.7201 33.0376C63.7721 33.1095 64.4214 34.0069 64.4214 35.552H50.4214ZM52.3706 41.2344C54.6165 44.3441 57.9852 45 60.2054 45V31C60.3137 31 60.8118 31.0105 61.4971 31.2847C62.252 31.5866 63.0808 32.1523 63.7201 33.0376L52.3706 41.2344ZM60.2054 45C62.9929 45 65.6926 43.9963 67.7951 41.8937L57.8956 31.9943C58.1795 31.7104 58.5733 31.4304 59.0576 31.2367C59.5338 31.0462 59.9444 31 60.2054 31V45ZM67.9039 41.7826C69.5689 40.0418 70.6333 37.9201 71.0695 35.594L57.3093 33.014C57.3295 32.9062 57.3762 32.7429 57.4712 32.5562C57.5669 32.3684 57.6816 32.2155 57.7869 32.1054L67.9039 41.7826ZM71.0865 35.4995L71.7105 31.8995L57.9162 29.5085L57.2922 33.1085L71.0865 35.4995ZM98.4351 22.496L103.001 17.1899C102.995 17.1847 102.989 17.1796 102.983 17.1744L98.4351 22.496ZM100.259 29.744L93.3851 28.4221C93.3796 28.4505 93.3743 28.4789 93.3692 28.5074L100.259 29.744ZM99.2511 35.36L92.3612 34.1234L92.3609 34.125L99.2511 35.36ZM94.9791 42.56L91.2539 36.6335C91.2411 36.6416 91.2283 36.6497 91.2155 36.6579L94.9791 42.56ZM77.9391 42.56L73.4844 47.9596C73.4954 47.9687 73.5064 47.9777 73.5174 47.9866L77.9391 42.56ZM76.2591 35.36L69.3692 34.1234L69.3681 34.1295L76.2591 35.36ZM77.2671 29.744L84.157 30.9806C84.1581 30.9746 84.1592 30.9685 84.1603 30.9625L77.2671 29.744ZM91.9071 30.704L85.0431 29.3312C85.0313 29.3901 85.0202 29.4492 85.01 29.5085L91.9071 30.704ZM86.5791 27.968L91.4125 33.0315C91.4517 32.994 91.4905 32.9561 91.5289 32.9177L86.5791 27.968ZM85.2351 30.704L92.1323 31.8995C92.1349 31.8846 92.1374 31.8697 92.1399 31.8548L85.2351 30.704ZM84.6111 34.304L91.4752 35.6768C91.487 35.6179 91.498 35.5587 91.5083 35.4995L84.6111 34.304ZM85.1391 37.136L90.8139 33.0376L90.8139 33.0376L85.1391 37.136ZM89.9391 36.944L94.8889 41.8937C94.9255 41.8571 94.9618 41.82 94.9976 41.7826L89.9391 36.944ZM91.2831 34.304L98.1632 35.594C98.1691 35.5626 98.1748 35.531 98.1803 35.4995L91.2831 34.304ZM90.6111 27.24C91.8527 27.24 92.6907 27.3774 93.2197 27.53C93.728 27.6765 93.8866 27.8168 93.8876 27.8176L102.983 17.1744C99.4591 14.1633 94.9391 13.24 90.6111 13.24V27.24ZM93.8694 27.8021C93.8201 27.7596 93.7514 27.6904 93.6811 27.5939C93.6106 27.4971 93.5582 27.4001 93.5234 27.3168C93.4519 27.1453 93.4991 27.1436 93.4991 27.44H107.499C107.499 23.6584 106.182 19.927 103.001 17.1899L93.8694 27.8021ZM93.4991 27.44C93.4991 27.6217 93.4776 27.941 93.3851 28.4221L107.133 31.0659C107.361 29.883 107.499 28.6663 107.499 27.44H93.4991ZM93.3692 28.5074L92.3612 34.1234L106.141 36.5966L107.149 30.9806L93.3692 28.5074ZM92.3609 34.125C91.9894 36.1978 91.3578 36.5683 91.2539 36.6335L98.7043 48.4865C103.08 45.7357 105.297 41.3062 106.141 36.595L92.3609 34.125ZM91.2155 36.6579C90.5087 37.1086 89.009 37.672 86.0991 37.672V51.672C90.6133 51.672 95.0336 50.8274 98.7428 48.4621L91.2155 36.6579ZM86.0991 37.672C84.6577 37.672 83.6669 37.5324 83.0291 37.3673C82.3989 37.2042 82.2674 37.0572 82.3608 37.1334L73.5174 47.9866C77.0892 50.897 81.7617 51.672 86.0991 51.672V37.672ZM82.3938 37.1604C82.5207 37.2651 82.6479 37.3973 82.7603 37.5518C82.872 37.7055 82.9451 37.8481 82.9894 37.9577C83.0753 38.1704 83.0191 38.1708 83.0191 37.808H69.0191C69.0191 41.3918 70.17 45.2252 73.4844 47.9596L82.3938 37.1604ZM83.0191 37.808C83.0191 37.5678 83.0464 37.1714 83.1501 36.5905L69.3681 34.1295C69.1519 35.3406 69.0191 36.5762 69.0191 37.808H83.0191ZM83.149 36.5966L84.157 30.9806L70.3772 28.5074L69.3692 34.1234L83.149 36.5966ZM84.1603 30.9625C84.4618 29.2565 85.0392 28.6487 85.504 28.3177C86.1357 27.8678 87.5839 27.24 90.6111 27.24V13.24C85.8623 13.24 81.1986 14.1962 77.3822 16.9143C73.399 19.7513 71.1924 23.8955 70.374 28.5255L84.1603 30.9625ZM98.7712 32.0768C98.957 31.1478 99.0031 30.2512 99.0031 29.504H85.0031C85.0031 29.5925 85 29.6232 85.0014 29.6058C85.0022 29.5957 85.0047 29.5677 85.0105 29.5239C85.0163 29.4803 85.0263 29.415 85.0431 29.3312L98.7712 32.0768ZM99.0031 29.504C99.0031 27.0871 98.0347 25.155 97.1563 23.8712L85.602 31.7768C85.5556 31.709 85.0031 30.8969 85.0031 29.504H99.0031ZM97.1563 23.8712C94.9277 20.614 91.463 19.912 89.1711 19.912V33.912C89.0653 33.912 88.5496 33.9018 87.8428 33.6098C87.0595 33.2863 86.2248 32.687 85.602 31.7768L97.1563 23.8712ZM89.1711 19.912C86.3499 19.912 83.6874 20.9602 81.6294 23.0183L91.5289 32.9177C91.266 33.1806 90.8851 33.4595 90.3962 33.6586C89.9112 33.8562 89.476 33.912 89.1711 33.912V19.912ZM81.7458 22.9045C79.7404 24.8187 78.7201 27.2145 78.3304 29.5532L92.1399 31.8548C92.1403 31.8526 92.1153 32.0035 91.998 32.2423C91.8751 32.4926 91.6822 32.774 91.4125 33.0315L81.7458 22.9045ZM78.338 29.5085L77.714 33.1085L91.5083 35.4995L92.1323 31.8995L78.338 29.5085ZM77.7471 32.9312C77.5568 33.8825 77.5151 34.8074 77.5151 35.552H91.5151C91.5151 35.4964 91.516 35.4552 91.517 35.4272C91.5179 35.3991 91.5189 35.3882 91.5185 35.3929C91.5182 35.3972 91.5161 35.423 91.5103 35.4674C91.5046 35.5112 91.494 35.5826 91.4752 35.6768L77.7471 32.9312ZM77.5151 35.552C77.5151 38.0571 78.5804 40.0105 79.4644 41.2344L90.8139 33.0376C90.8658 33.1095 91.5151 34.0069 91.5151 35.552H77.5151ZM79.4644 41.2344C81.7102 44.3441 85.079 45 87.2991 45V31C87.4075 31 87.9056 31.0105 88.5909 31.2847C89.3458 31.5866 90.1745 32.1523 90.8139 33.0376L79.4644 41.2344ZM87.2991 45C90.0867 45 92.7863 43.9963 94.8889 41.8937L84.9894 31.9943C85.2733 31.7104 85.6671 31.4304 86.1514 31.2367C86.6275 31.0462 87.0381 31 87.2991 31V45ZM94.9976 41.7826C96.6627 40.0418 97.7271 37.9201 98.1632 35.594L84.403 33.014C84.4232 32.9062 84.4699 32.7429 84.565 32.5562C84.6606 32.3684 84.7753 32.2155 84.8806 32.1054L94.9976 41.7826ZM98.1803 35.4995L98.8043 31.8995L85.01 29.5085L84.386 33.1085L98.1803 35.4995ZM129.273 37.376L136.266 37.6854C136.378 35.1524 135.112 32.7567 132.955 31.4229C130.799 30.089 128.09 30.0255 125.873 31.2569L129.273 37.376ZM129.033 42.8L133.447 48.2328C134.999 46.9718 135.938 45.1072 136.026 43.1094L129.033 42.8ZM117.993 40.832L124.915 39.7936C124.481 36.8953 122.286 34.5746 119.417 33.9784C116.547 33.3822 113.61 34.6367 112.057 37.122L117.993 40.832ZM103.305 35.36L96.415 34.1234C96.4121 34.1391 96.4094 34.1549 96.4067 34.1707L103.305 35.36ZM104.313 29.744L111.203 30.9806L111.205 30.9692L104.313 29.744ZM107.817 22.88L112.583 28.0063L112.587 28.0033L107.817 22.88ZM120.297 21.584L116.171 27.2385C118.124 28.6641 120.675 28.9803 122.918 28.0749C125.16 27.1695 126.776 25.1707 127.192 22.7884L120.297 21.584ZM122.745 7.568V0.567997C119.344 0.567997 116.434 3.01301 115.849 6.36363L122.745 7.568ZM130.953 7.568L137.846 8.78847C138.207 6.75015 137.647 4.65661 136.317 3.0704C134.987 1.4842 133.023 0.567997 130.953 0.567997V7.568ZM125.913 36.032L119.02 34.8115C119.016 34.8347 119.012 34.858 119.008 34.8812L125.913 36.032ZM111.657 34.304L118.49 35.8225C118.514 35.7154 118.535 35.6077 118.554 35.4995L111.657 34.304ZM112.281 37.04L107.174 41.8276C107.226 41.8825 107.278 41.9365 107.331 41.9897L112.281 37.04ZM117.657 36.416L122.786 41.1792C123.7 40.195 124.312 38.9687 124.548 37.6465L117.657 36.416ZM119.097 28.352L125.988 29.5825C126.232 28.2145 126.064 26.8048 125.504 25.5328L119.097 28.352ZM112.281 30.704L105.386 29.4928C105.386 29.498 105.385 29.5033 105.384 29.5085L112.281 30.704ZM118.865 36.608C118.865 38.103 119.243 40.51 121.227 42.4937C123.211 44.4775 125.618 44.856 127.113 44.856V30.856C127.776 30.856 129.559 31.0265 131.127 32.5943C132.694 34.162 132.865 35.945 132.865 36.608H118.865ZM127.113 44.856C128.808 44.856 130.782 44.5451 132.672 43.4951L125.873 31.2569C126.24 31.0531 126.562 30.9517 126.782 30.9027C126.891 30.8785 126.976 30.867 127.03 30.8614C127.058 30.8587 127.079 30.8573 127.092 30.8567C127.099 30.8563 127.104 30.8562 127.108 30.8561C127.111 30.856 127.113 30.856 127.113 30.856V44.856ZM122.28 37.0666L122.04 42.4906L136.026 43.1094L136.266 37.6854L122.28 37.0666ZM124.619 37.3672C124.289 37.6353 124.108 37.672 123.849 37.672V51.672C127.429 51.672 130.705 50.4607 133.447 48.2328L124.619 37.3672ZM123.849 37.672C123.377 37.672 123.147 37.6276 123.097 37.616C123.054 37.6058 123.262 37.6474 123.583 37.8583C123.93 38.0859 124.286 38.4308 124.555 38.874C124.815 39.3008 124.894 39.6516 124.915 39.7936L111.07 41.8704C111.522 44.8815 113.071 47.7066 115.906 49.5657C118.465 51.2434 121.373 51.672 123.849 51.672V37.672ZM112.057 37.122C111.927 37.3294 111.827 37.4397 111.774 37.4916C111.723 37.5406 111.695 37.5568 111.683 37.5635C111.67 37.5706 111.626 37.5934 111.525 37.617C111.42 37.6417 111.232 37.672 110.937 37.672V51.672C116.372 51.672 121.006 49.2179 123.929 44.542L112.057 37.122ZM110.937 37.672C110.104 37.672 109.631 37.5799 109.421 37.5199C109.232 37.4657 109.359 37.4682 109.596 37.6721C109.711 37.7705 109.82 37.89 109.912 38.0222C110.004 38.1531 110.056 38.2649 110.084 38.3346C110.134 38.4653 110.065 38.3695 110.065 37.904H96.0649C96.0649 41.5383 97.171 45.4522 100.469 48.2879C103.565 50.9497 107.471 51.672 110.937 51.672V37.672ZM110.065 37.904C110.065 37.6119 110.096 37.1688 110.203 36.5493L96.4067 34.1707C96.1935 35.4072 96.0649 36.6601 96.0649 37.904H110.065ZM110.195 36.5966L111.203 30.9806L97.423 28.5074L96.415 34.1234L110.195 36.5966ZM111.205 30.9692C111.499 29.3154 112.058 28.4946 112.583 28.0063L103.05 17.7536C99.9274 20.6574 98.1509 24.4126 97.4209 28.5188L111.205 30.9692ZM112.587 28.0033C112.808 27.7974 113.477 27.288 115.497 27.288V13.288C110.989 13.288 106.538 14.5066 103.047 17.7567L112.587 28.0033ZM115.497 27.288C116.017 27.288 116.291 27.3449 116.384 27.37C116.463 27.3914 116.356 27.374 116.171 27.2385L124.423 15.9295C121.665 13.9168 118.451 13.288 115.497 13.288V27.288ZM127.192 22.7884L129.64 8.77237L115.849 6.36363L113.401 20.3796L127.192 22.7884ZM122.745 14.568H130.953V0.567997H122.745V14.568ZM124.06 6.34752L119.02 34.8115L132.806 37.2525L137.846 8.78847L124.06 6.34752ZM119.008 34.8812C118.914 35.4483 118.865 36.0251 118.865 36.608H132.865C132.865 36.8069 132.848 36.9997 132.818 37.1828L119.008 34.8812ZM104.824 32.7855C104.597 33.8061 104.561 34.7955 104.561 35.504H118.561C118.561 35.3863 118.565 35.3502 118.563 35.3782C118.561 35.3946 118.557 35.4396 118.548 35.5084C118.538 35.576 118.521 35.6837 118.49 35.8225L104.824 32.7855ZM104.561 35.504C104.561 38.3655 105.935 40.5054 107.174 41.8276L117.388 32.2524C117.667 32.5506 118.561 33.6665 118.561 35.504H104.561ZM107.331 41.9897C109.758 44.4162 112.85 44.76 114.681 44.76V30.76C114.586 30.76 114.821 30.7457 115.252 30.8752C115.709 31.0124 116.483 31.3431 117.231 32.0903L107.331 41.9897ZM114.681 44.76C117.91 44.76 120.721 43.4032 122.786 41.1792L112.527 31.6528C112.668 31.5018 112.955 31.2487 113.408 31.0444C113.87 30.8358 114.322 30.76 114.681 30.76V44.76ZM124.548 37.6465L125.988 29.5825L112.206 27.1215L110.766 35.1855L124.548 37.6465ZM125.504 25.5328C123.51 21.0017 119.1 20.152 116.601 20.152V34.152C116.582 34.152 116.441 34.1512 116.211 34.1083C115.98 34.0651 115.613 33.9708 115.176 33.7608C114.179 33.2814 113.226 32.3904 112.69 31.1712L125.504 25.5328ZM116.601 20.152C114.273 20.152 111.553 20.7204 109.227 22.633C106.88 24.5633 105.798 27.15 105.386 29.4928L119.175 31.9152C119.18 31.89 119.026 32.7007 118.119 33.447C117.232 34.1756 116.465 34.152 116.601 34.152V20.152ZM105.384 29.5085L104.76 33.1085L118.554 35.4995L119.178 31.8995L105.384 29.5085ZM163.475 9.44L170.471 9.65824C170.53 7.7648 169.82 5.92826 168.501 4.56802C167.183 3.20778 165.369 2.44 163.475 2.44V9.44ZM162.659 35.6L155.662 35.3818C155.603 37.2752 156.314 39.1117 157.632 40.472C158.951 41.8322 160.764 42.6 162.659 42.6V35.6ZM163.763 35.6V42.6C166.809 42.6 169.505 40.6305 170.431 37.729L163.763 35.6ZM172.115 9.44V2.44C169.069 2.44 166.373 4.40949 165.446 7.31101L172.115 9.44ZM181.523 9.44L188.144 11.7114C188.878 9.57291 188.533 7.2117 187.219 5.37184C185.905 3.53197 183.784 2.44 181.523 2.44V9.44ZM169.667 44V51C172.657 51 175.318 49.1002 176.288 46.2714L169.667 44ZM155.267 44L148.279 43.5907C148.166 45.515 148.852 47.4006 150.174 48.8029C151.497 50.2051 153.339 51 155.267 51V44ZM156.563 21.872L163.551 22.2813C163.759 18.7246 161.263 15.5789 157.752 14.9737C154.241 14.3685 150.835 16.497 149.841 19.9182L156.563 21.872ZM150.131 44V51C153.244 51 155.984 48.9436 156.853 45.9538L150.131 44ZM135.731 44L128.731 43.9319C128.713 45.8002 129.442 47.5981 130.757 48.9256C132.072 50.2531 133.862 51 135.731 51V44ZM136.067 9.44V2.44C132.227 2.44 129.104 5.53268 129.067 9.37195L136.067 9.44ZM145.475 9.44L152.471 9.67107C152.534 7.77551 151.824 5.93568 150.506 4.57263C149.187 3.20958 147.371 2.44 145.475 2.44V9.44ZM144.611 35.6L137.615 35.3689C137.552 37.2645 138.261 39.1043 139.58 40.4674C140.899 41.8304 142.714 42.6 144.611 42.6V35.6ZM145.715 35.6V42.6C148.756 42.6 151.45 40.636 152.38 37.7401L145.715 35.6ZM154.115 9.44V2.44C151.073 2.44 148.38 4.40404 147.45 7.29991L154.115 9.44ZM156.478 9.22176L155.662 35.3818L169.655 35.8182L170.471 9.65824L156.478 9.22176ZM162.659 42.6H163.763V28.6H162.659V42.6ZM170.431 37.729L178.783 11.569L165.446 7.31101L157.094 33.471L170.431 37.729ZM172.115 16.44H181.523V2.44H172.115V16.44ZM174.902 7.16855L163.046 41.7286L176.288 46.2714L188.144 11.7114L174.902 7.16855ZM169.667 37H155.267V51H169.667V37ZM162.255 44.4093L163.551 22.2813L149.575 21.4627L148.279 43.5907L162.255 44.4093ZM149.841 19.9182L143.409 42.0462L156.853 45.9538L163.285 23.8258L149.841 19.9182ZM150.131 37H135.731V51H150.131V37ZM142.73 44.0681L143.066 9.50805L129.067 9.37195L128.731 43.9319L142.73 44.0681ZM136.067 16.44H145.475V2.44H136.067V16.44ZM138.479 9.20893L137.615 35.3689L151.607 35.8311L152.471 9.67107L138.479 9.20893ZM144.611 42.6H145.715V28.6H144.611V42.6ZM152.38 37.7401L160.78 11.5801L147.45 7.29991L139.05 33.4599L152.38 37.7401ZM154.115 16.44H163.475V2.44H154.115V16.44ZM192.371 37.376L199.364 37.6854C199.476 35.1524 198.21 32.7567 196.053 31.4229C193.897 30.089 191.188 30.0255 188.971 31.2569L192.371 37.376ZM192.131 42.8L196.601 48.1869C198.12 46.926 199.037 45.082 199.124 43.1094L192.131 42.8ZM181.331 42.656L187.219 38.8707L187.219 38.8707L181.331 42.656ZM180.659 37.136L173.767 35.9125C173.762 35.9367 173.758 35.961 173.754 35.9852L180.659 37.136ZM183.539 20.912V13.912C180.145 13.912 177.24 16.3468 176.647 19.6885L183.539 20.912ZM191.699 20.912L198.591 22.1372C198.953 20.0983 198.394 18.0036 197.064 16.4163C195.734 14.8289 193.77 13.912 191.699 13.912V20.912ZM189.011 36.032L182.119 34.8068C182.114 34.8316 182.11 34.8564 182.106 34.8812L189.011 36.032ZM185.843 8.624L180.81 3.75884L180.807 3.76184L185.843 8.624ZM192.755 15.152L187.805 10.2023C187.776 10.2312 187.747 10.2604 187.719 10.2898L192.755 15.152ZM190.403 44.856C192.187 44.856 194.037 44.458 195.77 43.4951L188.971 31.2569C189.552 30.934 190.091 30.856 190.403 30.856V44.856ZM185.378 37.0666L185.138 42.4906L199.124 43.1094L199.364 37.6854L185.378 37.0666ZM187.661 37.4131C187.389 37.639 187.251 37.672 186.995 37.672V51.672C190.579 51.672 193.865 50.457 196.601 48.1869L187.661 37.4131ZM186.995 37.672C186.529 37.672 186.195 37.6447 185.973 37.6136C185.749 37.5822 185.687 37.5535 185.742 37.5733C185.801 37.5941 186.018 37.6792 186.307 37.8911C186.609 38.1123 186.94 38.4363 187.219 38.8707L175.443 46.4413C178.367 50.9908 183.614 51.672 186.995 51.672V37.672ZM187.219 38.8707C187.251 38.9211 187.32 39.0435 187.378 39.2334C187.437 39.4269 187.467 39.6314 187.467 39.824H173.467C173.467 42.2581 174.197 44.5032 175.443 46.4413L187.219 38.8707ZM187.467 39.824C187.467 39.0729 187.515 38.5775 187.564 38.2868L173.754 35.9852C173.546 37.2305 173.467 38.5271 173.467 39.824H187.467ZM187.551 38.3595L190.431 22.1355L176.647 19.6885L173.767 35.9125L187.551 38.3595ZM183.539 27.912H191.699V13.912H183.539V27.912ZM184.807 19.6868L182.119 34.8068L195.903 37.2572L198.591 22.1372L184.807 19.6868ZM182.106 34.8812C182.024 35.3752 181.963 35.9424 181.963 36.56H195.963C195.963 36.8576 195.934 37.0728 195.916 37.1828L182.106 34.8812ZM181.963 36.56C181.963 38.2727 182.472 40.7842 184.64 42.7351C186.667 44.5597 189.015 44.856 190.403 44.856V30.856C190.83 30.856 192.458 30.9363 194.006 32.3289C195.693 33.8478 195.963 35.7113 195.963 36.56H181.963ZM191.499 13.088C191.499 12.544 191.562 12.3736 191.538 12.454C191.505 12.5609 191.348 13.0002 190.879 13.4862L180.807 3.76184C178.085 6.58144 177.499 10.2498 177.499 13.088H191.499ZM190.876 13.4892C190.469 13.9098 190.056 14.1053 189.843 14.1773C189.666 14.2369 189.714 14.184 190.115 14.184V0.183999C187.137 0.183999 183.544 0.93027 180.81 3.75884L190.876 13.4892ZM190.115 14.184C190.583 14.184 189.626 14.3062 188.512 13.3245C187.228 12.1936 187.147 10.8775 187.147 10.736H201.147C201.147 8.22646 200.394 5.13439 197.766 2.81949C195.308 0.653752 192.335 0.183999 190.115 0.183999V14.184ZM187.147 10.736C187.147 11.2358 187.086 11.3642 187.123 11.2476C187.169 11.0988 187.344 10.6631 187.805 10.2023L197.705 20.1017C200.503 17.3036 201.147 13.6343 201.147 10.736H187.147ZM187.719 10.2898C188.185 9.80713 188.646 9.60558 188.846 9.54041C189.01 9.48704 188.933 9.544 188.483 9.544V23.544C191.369 23.544 195.029 22.8742 197.791 20.0142L187.719 10.2898ZM188.483 9.544C188.009 9.544 188.961 9.41986 190.082 10.3923C191.393 11.5298 191.499 12.8813 191.499 13.088H177.499C177.499 15.5987 178.269 18.6782 180.908 20.9677C183.357 23.0921 186.301 23.544 188.483 23.544V9.544ZM218.362 28.832V35.832C220.622 35.832 222.744 34.7402 224.058 32.9007L218.362 28.832ZM210.49 28.832L206.29 23.232C203.879 25.0398 202.896 28.1872 203.849 31.0456C204.802 33.904 207.477 35.832 210.49 35.832V28.832ZM210.106 26.816L206.674 32.917C206.773 32.9728 206.873 33.0261 206.975 33.077L210.106 26.816ZM205.882 29.84L207.805 23.1093L207.805 23.1093L205.882 29.84ZM209.146 30.464L208.277 37.4099L208.277 37.4099L209.146 30.464ZM212.986 31.184L211.288 37.975C211.341 37.9884 211.395 38.0011 211.449 38.0133L212.986 31.184ZM216.25 32.96L221.199 28.0103L221.199 28.0103L216.25 32.96ZM214.378 42.608L210.597 36.7169C210.583 36.7255 210.57 36.7342 210.556 36.743L214.378 42.608ZM196.57 42.704L200.956 37.2484C200.951 37.2449 200.947 37.2414 200.942 37.2379L196.57 42.704ZM194.794 36.896L194.71 29.8965C191.345 29.9368 188.485 32.3656 187.9 35.6795L194.794 36.896ZM202.81 36.8L209.739 37.7899C210.028 35.7666 209.419 33.718 208.07 32.182C206.722 30.646 204.77 29.776 202.726 29.8005L202.81 36.8ZM203.578 38L199.927 43.973C200.055 44.0509 200.185 44.1248 200.317 44.1944L203.578 38ZM208.714 38.144L211.519 44.5571C211.629 44.5092 211.737 44.4585 211.844 44.405L208.714 38.144ZM208.138 35.84L206.671 42.6846C206.749 42.7014 206.828 42.7169 206.907 42.731L208.138 35.84ZM204.826 35.36L204.129 42.3253C204.135 42.3258 204.14 42.3264 204.146 42.3269L204.826 35.36ZM200.938 34.736L199.401 41.5653C199.413 41.5679 199.425 41.5706 199.437 41.5732L200.938 34.736ZM197.674 32.912L192.638 37.7742L192.638 37.7742L197.674 32.912ZM199.69 22.544L195.714 16.7828C195.701 16.7916 195.688 16.8005 195.675 16.8094L199.69 22.544ZM212.322 25.904C212.322 25.7123 212.353 25.4828 212.43 25.2471C212.506 25.0142 212.603 24.851 212.665 24.7633L224.058 32.9007C225.507 30.8715 226.322 28.4839 226.322 25.904H212.322ZM218.362 21.832H210.49V35.832H218.362V21.832ZM214.69 34.432C217.344 32.4413 217.874 29.5846 217.874 27.872H203.874C203.874 27.0554 204.147 24.8387 206.29 23.232L214.69 34.432ZM217.874 27.872C217.874 23.9982 215.337 21.6055 213.236 20.555L206.975 33.077C206.533 32.8557 205.727 32.3604 205.02 31.3892C204.251 30.3318 203.874 29.081 203.874 27.872H217.874ZM213.537 20.715C211.666 19.6624 209.723 19.384 208.138 19.384V33.384C208.126 33.384 207.977 33.3836 207.729 33.3292C207.475 33.2736 207.101 33.1572 206.674 32.917L213.537 20.715ZM208.138 19.384C206.45 19.384 204.007 19.602 201.778 20.9689C198.99 22.6789 197.538 25.5566 197.538 28.592H211.538C211.538 29.1907 211.409 30.0556 210.913 30.9686C210.409 31.8958 209.715 32.5245 209.097 32.9031C208.069 33.534 207.426 33.384 208.138 33.384V19.384ZM197.538 28.592C197.538 30.9567 198.558 33.0244 200.11 34.4656C201.455 35.7141 202.957 36.2845 203.959 36.5707L207.805 23.1093C207.91 23.1395 208.74 23.3739 209.637 24.2064C210.741 25.2316 211.538 26.8033 211.538 28.592H197.538ZM203.959 36.5707C205.303 36.9548 206.766 37.221 208.277 37.4099L210.014 23.5181C208.966 23.387 208.252 23.2372 207.805 23.1093L203.959 36.5707ZM208.277 37.4099C209.272 37.5342 210.275 37.7217 211.288 37.975L214.683 24.393C213.136 24.0063 211.58 23.7138 210.014 23.5181L208.277 37.4099ZM211.449 38.0133C211.475 38.019 211.481 38.022 211.471 38.0186C211.462 38.015 211.442 38.0068 211.416 37.9927C211.39 37.9786 211.364 37.9621 211.342 37.945C211.319 37.928 211.305 37.9148 211.3 37.9097L221.199 28.0103C219.332 26.143 217.047 24.9227 214.522 24.3547L211.449 38.0133ZM211.3 37.9097C211.031 37.6408 210.823 37.3091 210.7 36.9803C210.585 36.6738 210.594 36.5013 210.594 36.56H224.594C224.594 33.5722 223.65 30.461 221.199 28.0103L211.3 37.9097ZM210.594 36.56C210.594 36.7532 210.574 36.8479 210.57 36.8665C210.568 36.8761 210.569 36.8701 210.575 36.8519C210.582 36.8335 210.593 36.8077 210.609 36.7775C210.625 36.7473 210.643 36.7183 210.662 36.6925C210.681 36.6667 210.696 36.6491 210.705 36.6398C210.724 36.6196 210.7 36.6504 210.597 36.7169L218.158 48.4991C222.409 45.7709 224.594 41.4774 224.594 36.56H210.594ZM210.556 36.743C210.081 37.0524 208.576 37.672 205.114 37.672V51.672C209.779 51.672 214.45 50.9156 218.199 48.473L210.556 36.743ZM205.114 37.672C203.422 37.672 202.253 37.532 201.501 37.3586C200.724 37.1796 200.689 37.0343 200.956 37.2484L192.184 48.1596C195.785 51.0545 200.739 51.672 205.114 51.672V37.672ZM200.942 37.2379C201.109 37.3711 201.34 37.6258 201.502 37.9834C201.656 38.3224 201.65 38.5343 201.65 38.48H187.65C187.65 42.172 189.087 45.6823 192.197 48.1701L200.942 37.2379ZM201.65 38.48C201.65 38.4064 201.656 38.2861 201.687 38.1125L187.9 35.6795C187.739 36.5939 187.65 37.5296 187.65 38.48H201.65ZM194.877 43.8955L202.893 43.7995L202.726 29.8005L194.71 29.8965L194.877 43.8955ZM195.88 35.8101C195.237 40.3102 198.314 42.9872 199.927 43.973L207.228 32.027C207.489 32.187 208.216 32.6735 208.85 33.6626C209.577 34.7993 209.957 36.2664 209.739 37.7899L195.88 35.8101ZM200.317 44.1944C202.394 45.2874 204.605 45.48 206.218 45.48V31.48C205.949 31.48 205.875 31.46 205.946 31.4729C206.007 31.4841 206.355 31.5512 206.838 31.8056L200.317 44.1944ZM206.218 45.48C207.526 45.48 209.6 45.3968 211.519 44.5571L205.908 31.7309C206.211 31.5983 206.447 31.5313 206.572 31.5C206.639 31.4832 206.69 31.4729 206.721 31.467C206.753 31.4611 206.771 31.4587 206.772 31.4586C206.773 31.4584 206.762 31.4599 206.737 31.4623C206.712 31.4646 206.675 31.4674 206.627 31.4701C206.529 31.4757 206.394 31.48 206.218 31.48V45.48ZM211.844 44.405C213.261 43.6964 214.55 42.5595 215.419 40.9855C216.251 39.4764 216.482 37.9601 216.482 36.752H202.482C202.482 36.2159 202.584 35.2676 203.161 34.2225C203.773 33.1125 204.678 32.3356 205.583 31.883L211.844 44.405ZM216.482 36.752C216.482 33.705 214.763 31.5401 213.076 30.3957C211.667 29.4394 210.212 29.0996 209.368 28.949L206.907 42.731C206.867 42.7238 206.697 42.6919 206.441 42.6038C206.197 42.5195 205.744 42.3389 205.215 41.9803C204.675 41.6141 203.961 40.9949 203.384 40.0256C202.779 39.0095 202.482 37.87 202.482 36.752H216.482ZM209.604 28.9954C208.363 28.7294 206.978 28.5367 205.505 28.3931L204.146 42.3269C205.297 42.4393 206.12 42.5666 206.671 42.6846L209.604 28.9954ZM205.522 28.3947C204.524 28.2949 203.497 28.1311 202.438 27.8988L199.437 41.5732C201.003 41.9169 202.567 42.1691 204.129 42.3253L205.522 28.3947ZM202.474 27.9067C202.457 27.9028 202.502 27.9118 202.576 27.9534C202.652 27.9955 202.698 28.0379 202.709 28.0498L192.638 37.7742C194.5 39.7031 196.812 40.9827 199.401 41.5653L202.474 27.9067ZM202.709 28.0498C202.939 28.2881 203.124 28.5848 203.234 28.8841C203.337 29.1645 203.33 29.3205 203.33 29.264H189.33C189.33 32.2587 190.274 35.3257 192.638 37.7742L202.709 28.0498ZM203.33 29.264C203.33 28.718 203.43 28.5319 203.431 28.5305C203.436 28.52 203.444 28.5054 203.468 28.4774C203.495 28.4471 203.563 28.3772 203.704 28.2786L195.675 16.8094C191.425 19.7846 189.33 24.2429 189.33 29.264H203.33ZM203.666 28.3052C204.292 27.8727 205.929 27.192 209.482 27.192V13.192C204.522 13.192 199.631 14.0793 195.714 16.7828L203.666 28.3052ZM209.482 27.192C210.804 27.192 211.775 27.2896 212.457 27.4215C213.15 27.5557 213.383 27.6945 213.347 27.6739C213.268 27.6278 212.926 27.3949 212.636 26.8908C212.348 26.388 212.322 25.9818 212.322 25.904H226.322C226.322 21.5176 224.185 17.7769 220.376 15.5661C217.148 13.6926 213.21 13.192 209.482 13.192V27.192ZM221.569 35.696L228.466 36.8954C228.468 36.8852 228.469 36.875 228.471 36.8648L221.569 35.696ZM222.577 29.744L215.685 28.5234C215.682 28.5406 215.679 28.5579 215.676 28.5752L222.577 29.744ZM226.801 22.688L230.885 28.3733C230.89 28.3698 230.895 28.3663 230.9 28.3628L226.801 22.688ZM245.377 29.792L252.279 30.9586C252.285 30.9245 252.291 30.8905 252.296 30.8564L245.377 29.792ZM244.801 33.2V40.2C248.217 40.2 251.134 37.7346 251.703 34.3666L244.801 33.2ZM230.161 33.2V26.2C226.758 26.2 223.848 28.6477 223.265 32.0006L230.161 33.2ZM229.969 34.304L223.073 33.1046C223.07 33.1208 223.067 33.137 223.065 33.1532L229.969 34.304ZM234.961 37.28L239.593 42.5289L239.593 42.5289L234.961 37.28ZM235.921 35.6L236.006 28.6005C232.509 28.5584 229.518 31.1033 228.999 34.5616L235.921 35.6ZM243.889 35.696L250.783 36.9125C251.14 34.8892 250.59 32.8112 249.279 31.2292C247.968 29.6473 246.028 28.7213 243.974 28.6965L243.889 35.696ZM237.121 30.272V37.272C240.37 37.272 243.191 35.0373 243.935 31.8753L237.121 30.272ZM236.689 27.344L231.4 31.9285L231.4 31.9285L236.689 27.344ZM232.177 27.536L227.832 22.0477C227.794 22.0778 227.757 22.1083 227.719 22.1393L232.177 27.536ZM230.641 30.272L223.83 28.6587C223.337 30.7414 223.823 32.9353 225.151 34.6141C226.478 36.2928 228.501 37.272 230.641 37.272V30.272ZM231.361 37.672C230.079 37.672 229.172 37.5589 228.567 37.4193C227.963 37.2797 227.796 37.1457 227.858 37.1887C227.965 37.263 228.169 37.4583 228.308 37.7473C228.431 38.0024 228.377 38.0695 228.377 37.76H214.377C214.377 41.9923 216.052 46.0431 219.889 48.6993C223.26 51.0329 227.442 51.672 231.361 51.672V37.672ZM228.377 37.76C228.377 37.582 228.396 37.2992 228.466 36.8954L214.673 34.4966C214.487 35.5648 214.377 36.658 214.377 37.76H228.377ZM228.471 36.8648L229.479 30.9128L215.676 28.5752L214.668 34.5272L228.471 36.8648ZM229.47 30.9646C229.736 29.4644 230.272 28.8136 230.885 28.3733L222.718 17.0027C218.787 19.8264 216.507 23.8796 215.685 28.5234L229.47 30.9646ZM230.9 28.3628C231.674 27.8036 233.138 27.192 235.921 27.192V13.192C231.153 13.192 226.537 14.2444 222.703 17.0132L230.9 28.3628ZM235.921 27.192C237.111 27.192 237.92 27.3068 238.431 27.4357C238.935 27.5625 239.032 27.6726 238.935 27.5993C238.8 27.4968 238.646 27.3112 238.561 27.1194C238.495 26.9686 238.569 27.0353 238.569 27.488H252.569C252.569 23.3696 251.106 19.2504 247.38 16.4327C244.022 13.894 239.82 13.192 235.921 13.192V27.192ZM238.569 27.488C238.569 27.7747 238.543 28.1819 238.459 28.7276L252.296 30.8564C252.468 29.7381 252.569 28.6093 252.569 27.488H238.569ZM238.475 28.6254L237.899 32.0334L251.703 34.3666L252.279 30.9586L238.475 28.6254ZM244.801 26.2H230.161V40.2H244.801V26.2ZM223.265 32.0006L223.073 33.1046L236.866 35.5034L237.058 34.3994L223.265 32.0006ZM223.065 33.1532C222.95 33.8392 222.873 34.5824 222.873 35.36H236.873C236.873 35.4321 236.87 35.4765 236.869 35.4898C236.867 35.5032 236.868 35.4923 236.874 35.4548L223.065 33.1532ZM222.873 35.36C222.873 37.6538 223.606 40.5467 226.132 42.6837C228.433 44.6312 231.133 45 232.993 45V31C232.773 31 233.913 30.9288 235.175 31.9963C236.66 33.2533 236.873 34.8262 236.873 35.36H222.873ZM232.993 45C235.358 45 237.69 44.2073 239.593 42.5289L230.33 32.0311C230.686 31.7174 231.135 31.437 231.656 31.2461C232.172 31.0576 232.638 31 232.993 31V45ZM239.593 42.5289C241.213 41.0993 242.474 39.1062 242.844 36.6384L228.999 34.5616C229.079 34.0278 229.26 33.5019 229.532 33.027C229.797 32.562 230.097 32.2369 230.33 32.0311L239.593 42.5289ZM235.837 42.5995L243.805 42.6955L243.974 28.6965L236.006 28.6005L235.837 42.5995ZM236.996 34.4795C236.724 36.0225 236.221 36.4995 235.888 36.7378C235.395 37.0916 234.14 37.672 231.361 37.672V51.672C235.878 51.672 240.36 50.7564 244.042 48.1182C247.886 45.3645 249.999 41.3535 250.783 36.9125L236.996 34.4795ZM243.935 31.8753C244.158 30.9291 244.313 29.8853 244.313 28.784H230.313C230.313 28.6764 230.321 28.6116 230.323 28.5962C230.325 28.5806 230.323 28.6035 230.307 28.6687L243.935 31.8753ZM244.313 28.784C244.313 26.1394 243.136 24.0948 241.979 22.7595L231.4 31.9285C231.074 31.5532 230.313 30.4686 230.313 28.784H244.313ZM241.979 22.7595C239.714 20.1463 236.675 19.624 234.673 19.624V33.624C234.527 33.624 232.832 33.5817 231.4 31.9285L241.979 22.7595ZM234.673 19.624C232.05 19.624 229.714 20.5578 227.832 22.0477L236.522 33.0243C236.382 33.1351 236.135 33.297 235.78 33.4269C235.417 33.5594 235.035 33.624 234.673 33.624V19.624ZM227.719 22.1393C225.49 23.981 224.361 26.4176 223.83 28.6587L237.453 31.8853C237.498 31.6943 237.393 32.307 236.636 32.9327L227.719 22.1393ZM230.641 37.272H237.121V23.272H230.641V37.272Z" fill="#FFE3AE" mask="url(#path-1-outside-1_1226_492)"/>
</svg>
